<svg width="561" height="375" viewBox="0 0 561 375" fill="none" xmlns="http://www.w3.org/2000/svg">
<mask id="path-1-outside-1_2_10" maskUnits="userSpaceOnUse" x="232.349" y="225.606" width="329" height="134" fill="black">
<rect fill="white" x="232.349" y="225.606" width="329" height="134"/>
<path d="M257.725 269.768C260.705 268.991 263.707 268.365 266.73 267.89C269.753 267.372 271.566 267.112 272.171 267.112C272.603 267.112 272.819 267.285 272.819 267.631C272.819 268.278 272.646 268.948 272.3 269.639C271.609 271.625 271.264 273.525 271.264 275.339C271.264 277.585 272.56 280.651 275.151 284.538C277.742 288.424 279.037 292.03 279.037 295.355C279.037 301.963 275.863 308.333 269.515 314.465C263.21 320.597 256.667 323.663 249.887 323.663C246.951 323.663 244.273 322.886 241.855 321.331C239.437 319.777 238.227 318.114 238.227 316.343C238.227 315.307 239.415 313.342 241.79 310.449C244.209 307.555 245.936 306.109 246.972 306.109C248.354 306.109 249.585 307.879 250.665 311.42C251.744 314.961 253.601 316.732 256.236 316.732C258.87 316.732 261.331 315.523 263.62 313.105C265.952 310.643 267.118 308.009 267.118 305.202C267.118 302.481 265.65 298.853 262.713 294.319C259.777 289.785 257.833 285.984 256.883 282.918C251.874 290.994 245.526 299.264 237.839 307.728H236.349V301.898C246.929 290.627 254.055 279.917 257.725 269.768ZM355.216 307.598C345.413 318.308 337.272 323.663 330.795 323.663C327.685 323.663 325.073 322.584 322.956 320.424C320.84 318.222 319.782 315.523 319.782 312.327C319.782 310.816 320.041 308.549 320.56 305.526C321.078 302.503 321.337 300.797 321.337 300.408C321.337 298.422 320.214 297.407 317.969 297.364C315.723 297.277 314.6 296.392 314.6 294.708C314.6 293.239 314.902 292.225 315.507 291.663C316.155 291.059 317.342 290.756 319.07 290.756C323.82 290.627 327.361 289.655 329.693 287.841C332.025 285.984 333.191 283.803 333.191 281.299C333.191 279.528 332.544 278.081 331.248 276.959C329.996 275.793 328.376 275.21 326.39 275.21C325.31 275.21 324.274 275.339 323.28 275.598C322.244 275.857 321.251 276.246 320.301 276.764C319.307 277.326 318.271 278.038 317.191 278.902C316.155 279.809 315.054 280.91 313.888 282.206C312.765 283.458 311.534 284.948 310.195 286.675C309.504 287.582 308.641 291.836 307.604 299.436C307.086 303.366 306.74 306.994 306.568 310.319C306.395 313.428 306.373 316.948 306.503 320.878L291.799 323.339C291.237 320.057 290.956 316.041 290.956 311.291C290.956 298.335 292.705 285.963 296.203 274.173C299.701 262.384 305.423 250.27 313.369 237.833C319.545 235.328 324.878 233.385 329.37 232.003C333.861 230.578 336.365 229.865 336.884 229.865C337.92 229.865 338.935 230.902 339.928 232.975C340.922 235.048 341.418 237.228 341.418 239.517C341.418 243.361 340.144 247.571 337.596 252.149C335.048 256.683 331.097 262.168 325.742 268.602C329.413 267.523 332.457 266.983 334.876 266.983C338.892 266.983 342.174 268.019 344.722 270.092C347.27 272.122 348.544 274.713 348.544 277.866C348.544 285.034 342.088 290.303 329.175 293.671C334.228 294.837 336.754 297.795 336.754 302.546L336.365 308.376C336.365 311.01 337.596 312.327 340.058 312.327C341.785 312.327 343.75 311.485 345.953 309.801C348.155 308.117 351.243 304.899 355.216 300.149L355.216 307.598ZM312.722 276.376L316.997 271.647C329.65 257.396 335.977 247.355 335.977 241.525C335.977 238.848 334.811 237.509 332.479 237.509C329.801 237.509 326.714 240.662 323.216 246.967C319.761 253.272 316.263 263.075 312.722 276.376ZM418.762 307.728C413.278 313.472 406.714 317.704 399.07 320.424C395.486 331.609 390.93 340.225 385.402 346.271C379.918 352.317 374.088 355.339 367.912 355.339C364.544 355.339 361.823 354.281 359.75 352.165C357.677 350.049 356.641 347.264 356.641 343.809C356.641 339.188 358.692 335.043 362.795 331.372C366.94 327.701 373.958 324.16 383.847 320.748L386.633 307.987C382.487 312.651 378.903 316.084 375.88 318.287C372.857 320.446 369.812 321.526 366.746 321.526C363.162 321.526 360.225 319.841 357.936 316.473C355.648 313.105 354.503 308.721 354.503 303.323C354.503 294.513 357.85 286.265 364.544 278.578C371.281 270.848 378.428 266.983 385.985 266.983C390.174 266.983 393.888 268.753 397.127 272.295C399.07 271.604 401.596 270.567 404.706 269.185L409.305 267.112H410.795C409.111 272.208 407.815 277.175 406.908 282.011L400.819 314.465C406.649 312.262 412.63 307.534 418.762 300.279V307.728ZM377.046 309.866C380.112 309.866 382.833 308.052 385.208 304.424C387.583 300.797 389.418 296.198 390.714 290.627C392.053 285.056 392.722 281.191 392.722 279.032C392.722 277.002 392.204 275.339 391.167 274.044C390.174 272.705 388.922 272.036 387.41 272.036C382.833 272.036 378.838 275.123 375.426 281.299C372.015 287.474 370.309 293.758 370.309 300.149C370.309 303.129 370.913 305.504 372.123 307.275C373.375 309.002 375.016 309.866 377.046 309.866ZM382.487 326.449C368.538 331.458 361.564 337.245 361.564 343.809C361.564 345.752 362.147 347.329 363.313 348.538C364.479 349.79 365.969 350.416 367.783 350.416C370.892 350.416 373.591 348.451 375.88 344.522C378.169 340.592 380.371 334.567 382.487 326.449ZM461.58 307.728C455.707 313.126 450.547 317.121 446.099 319.712C441.694 322.26 437.483 323.534 433.467 323.534C428.846 323.534 425.111 321.742 422.26 318.157C419.453 314.573 418.05 309.758 418.05 303.712C418.05 294.643 420.015 283.76 423.945 271.064C427.875 258.367 432.646 246.664 438.26 235.954L454.714 229.865C455.232 229.693 455.621 229.606 455.88 229.606C457.132 229.606 458.147 230.535 458.925 232.392C459.745 234.205 460.155 236.667 460.155 239.776C460.155 248.586 458.126 257.115 454.066 265.363C450.007 273.612 443.659 282.422 435.022 291.793C434.676 296.284 434.503 299.372 434.503 301.056C434.503 304.813 435.194 307.793 436.576 309.995C437.958 312.198 439.794 313.299 442.082 313.299C444.414 313.299 446.898 312.457 449.532 310.773C452.166 309.088 456.182 305.59 461.58 300.279V307.728ZM436.771 282.4C442.255 276.311 446.703 269.488 450.115 261.93C453.526 254.373 455.232 247.874 455.232 242.432C455.232 240.834 454.995 239.56 454.52 238.61C454.045 237.617 453.44 237.12 452.706 237.12C451.108 237.12 448.776 241.093 445.71 249.04C442.687 256.986 439.707 268.106 436.771 282.4ZM556.998 307.728C551.6 312.997 546.979 316.948 543.135 319.582C539.292 322.217 535.556 323.534 531.929 323.534C529.079 323.534 526.811 322.562 525.127 320.619C523.486 318.632 522.666 315.976 522.666 312.651C522.666 307.987 523.832 302.071 526.164 294.902C528.496 287.733 529.662 283.372 529.662 281.817C529.662 280.435 528.949 279.744 527.524 279.744C527.092 279.744 526.574 279.895 525.969 280.198C525.322 280.5 524.587 280.932 523.767 281.493C522.946 282.098 522.061 282.832 521.111 283.696C520.161 284.559 519.168 285.552 518.131 286.675C517.008 287.798 515.886 289.029 514.763 290.368C512.863 292.613 511.74 294.492 511.394 296.003L509.257 305.266L505.37 320.554L488.917 323.534L495.2 296.845C495.675 294.902 496.236 292.052 496.884 288.295C497.532 284.538 497.856 282.292 497.856 281.558C497.856 280.09 497.359 279.355 496.366 279.355C496.064 279.355 495.632 279.507 495.07 279.809C494.423 280.111 493.688 280.565 492.868 281.169C491.918 281.86 490.903 282.681 489.823 283.631C488.657 284.667 487.405 285.855 486.066 287.194C484.641 288.619 483.173 290.195 481.661 291.922C479.589 294.254 478.293 296.975 477.775 300.084C477.084 303.798 476.609 307.123 476.35 310.06C476.047 312.997 475.875 316.279 475.832 319.906L461.451 323.339C461.105 318.373 460.933 314.227 460.933 310.902C460.933 302.999 461.753 296.133 463.394 290.303C465.035 284.43 467.713 277.585 471.427 269.768L487.103 266.724C484.296 273.763 482.115 280.565 480.56 287.129C492.177 273.612 501.073 266.853 507.249 266.853C509.494 266.853 511.308 267.782 512.69 269.639C514.115 271.453 514.828 273.849 514.828 276.829C514.828 278.211 514.612 280.759 514.18 284.473C521.478 277.175 526.703 272.424 529.856 270.222C533.052 267.976 535.988 266.853 538.666 266.853C541.041 266.853 542.984 267.803 544.496 269.704C546.007 271.604 546.763 274.022 546.763 276.959C546.763 281.579 545.489 287.517 542.941 294.772C540.393 302.028 539.119 306.821 539.119 309.153C539.119 311.571 540.004 312.781 541.775 312.781C542.898 312.781 544.453 312.046 546.439 310.578C548.469 309.067 551.988 305.634 556.998 300.279V307.728Z"/>
</mask>
<path d="M257.725 269.768C260.705 268.991 263.707 268.365 266.73 267.89C269.753 267.372 271.566 267.112 272.171 267.112C272.603 267.112 272.819 267.285 272.819 267.631C272.819 268.278 272.646 268.948 272.3 269.639C271.609 271.625 271.264 273.525 271.264 275.339C271.264 277.585 272.56 280.651 275.151 284.538C277.742 288.424 279.037 292.03 279.037 295.355C279.037 301.963 275.863 308.333 269.515 314.465C263.21 320.597 256.667 323.663 249.887 323.663C246.951 323.663 244.273 322.886 241.855 321.331C239.437 319.777 238.227 318.114 238.227 316.343C238.227 315.307 239.415 313.342 241.79 310.449C244.209 307.555 245.936 306.109 246.972 306.109C248.354 306.109 249.585 307.879 250.665 311.42C251.744 314.961 253.601 316.732 256.236 316.732C258.87 316.732 261.331 315.523 263.62 313.105C265.952 310.643 267.118 308.009 267.118 305.202C267.118 302.481 265.65 298.853 262.713 294.319C259.777 289.785 257.833 285.984 256.883 282.918C251.874 290.994 245.526 299.264 237.839 307.728H236.349V301.898C246.929 290.627 254.055 279.917 257.725 269.768ZM355.216 307.598C345.413 318.308 337.272 323.663 330.795 323.663C327.685 323.663 325.073 322.584 322.956 320.424C320.84 318.222 319.782 315.523 319.782 312.327C319.782 310.816 320.041 308.549 320.56 305.526C321.078 302.503 321.337 300.797 321.337 300.408C321.337 298.422 320.214 297.407 317.969 297.364C315.723 297.277 314.6 296.392 314.6 294.708C314.6 293.239 314.902 292.225 315.507 291.663C316.155 291.059 317.342 290.756 319.07 290.756C323.82 290.627 327.361 289.655 329.693 287.841C332.025 285.984 333.191 283.803 333.191 281.299C333.191 279.528 332.544 278.081 331.248 276.959C329.996 275.793 328.376 275.21 326.39 275.21C325.31 275.21 324.274 275.339 323.28 275.598C322.244 275.857 321.251 276.246 320.301 276.764C319.307 277.326 318.271 278.038 317.191 278.902C316.155 279.809 315.054 280.91 313.888 282.206C312.765 283.458 311.534 284.948 310.195 286.675C309.504 287.582 308.641 291.836 307.604 299.436C307.086 303.366 306.74 306.994 306.568 310.319C306.395 313.428 306.373 316.948 306.503 320.878L291.799 323.339C291.237 320.057 290.956 316.041 290.956 311.291C290.956 298.335 292.705 285.963 296.203 274.173C299.701 262.384 305.423 250.27 313.369 237.833C319.545 235.328 324.878 233.385 329.37 232.003C333.861 230.578 336.365 229.865 336.884 229.865C337.92 229.865 338.935 230.902 339.928 232.975C340.922 235.048 341.418 237.228 341.418 239.517C341.418 243.361 340.144 247.571 337.596 252.149C335.048 256.683 331.097 262.168 325.742 268.602C329.413 267.523 332.457 266.983 334.876 266.983C338.892 266.983 342.174 268.019 344.722 270.092C347.27 272.122 348.544 274.713 348.544 277.866C348.544 285.034 342.088 290.303 329.175 293.671C334.228 294.837 336.754 297.795 336.754 302.546L336.365 308.376C336.365 311.01 337.596 312.327 340.058 312.327C341.785 312.327 343.75 311.485 345.953 309.801C348.155 308.117 351.243 304.899 355.216 300.149L355.216 307.598ZM312.722 276.376L316.997 271.647C329.65 257.396 335.977 247.355 335.977 241.525C335.977 238.848 334.811 237.509 332.479 237.509C329.801 237.509 326.714 240.662 323.216 246.967C319.761 253.272 316.263 263.075 312.722 276.376ZM418.762 307.728C413.278 313.472 406.714 317.704 399.07 320.424C395.486 331.609 390.93 340.225 385.402 346.271C379.918 352.317 374.088 355.339 367.912 355.339C364.544 355.339 361.823 354.281 359.75 352.165C357.677 350.049 356.641 347.264 356.641 343.809C356.641 339.188 358.692 335.043 362.795 331.372C366.94 327.701 373.958 324.16 383.847 320.748L386.633 307.987C382.487 312.651 378.903 316.084 375.88 318.287C372.857 320.446 369.812 321.526 366.746 321.526C363.162 321.526 360.225 319.841 357.936 316.473C355.648 313.105 354.503 308.721 354.503 303.323C354.503 294.513 357.85 286.265 364.544 278.578C371.281 270.848 378.428 266.983 385.985 266.983C390.174 266.983 393.888 268.753 397.127 272.295C399.07 271.604 401.596 270.567 404.706 269.185L409.305 267.112H410.795C409.111 272.208 407.815 277.175 406.908 282.011L400.819 314.465C406.649 312.262 412.63 307.534 418.762 300.279V307.728ZM377.046 309.866C380.112 309.866 382.833 308.052 385.208 304.424C387.583 300.797 389.418 296.198 390.714 290.627C392.053 285.056 392.722 281.191 392.722 279.032C392.722 277.002 392.204 275.339 391.167 274.044C390.174 272.705 388.922 272.036 387.41 272.036C382.833 272.036 378.838 275.123 375.426 281.299C372.015 287.474 370.309 293.758 370.309 300.149C370.309 303.129 370.913 305.504 372.123 307.275C373.375 309.002 375.016 309.866 377.046 309.866ZM382.487 326.449C368.538 331.458 361.564 337.245 361.564 343.809C361.564 345.752 362.147 347.329 363.313 348.538C364.479 349.79 365.969 350.416 367.783 350.416C370.892 350.416 373.591 348.451 375.88 344.522C378.169 340.592 380.371 334.567 382.487 326.449ZM461.58 307.728C455.707 313.126 450.547 317.121 446.099 319.712C441.694 322.26 437.483 323.534 433.467 323.534C428.846 323.534 425.111 321.742 422.26 318.157C419.453 314.573 418.05 309.758 418.05 303.712C418.05 294.643 420.015 283.76 423.945 271.064C427.875 258.367 432.646 246.664 438.26 235.954L454.714 229.865C455.232 229.693 455.621 229.606 455.88 229.606C457.132 229.606 458.147 230.535 458.925 232.392C459.745 234.205 460.155 236.667 460.155 239.776C460.155 248.586 458.126 257.115 454.066 265.363C450.007 273.612 443.659 282.422 435.022 291.793C434.676 296.284 434.503 299.372 434.503 301.056C434.503 304.813 435.194 307.793 436.576 309.995C437.958 312.198 439.794 313.299 442.082 313.299C444.414 313.299 446.898 312.457 449.532 310.773C452.166 309.088 456.182 305.59 461.58 300.279V307.728ZM436.771 282.4C442.255 276.311 446.703 269.488 450.115 261.93C453.526 254.373 455.232 247.874 455.232 242.432C455.232 240.834 454.995 239.56 454.52 238.61C454.045 237.617 453.44 237.12 452.706 237.12C451.108 237.12 448.776 241.093 445.71 249.04C442.687 256.986 439.707 268.106 436.771 282.4ZM556.998 307.728C551.6 312.997 546.979 316.948 543.135 319.582C539.292 322.217 535.556 323.534 531.929 323.534C529.079 323.534 526.811 322.562 525.127 320.619C523.486 318.632 522.666 315.976 522.666 312.651C522.666 307.987 523.832 302.071 526.164 294.902C528.496 287.733 529.662 283.372 529.662 281.817C529.662 280.435 528.949 279.744 527.524 279.744C527.092 279.744 526.574 279.895 525.969 280.198C525.322 280.5 524.587 280.932 523.767 281.493C522.946 282.098 522.061 282.832 521.111 283.696C520.161 284.559 519.168 285.552 518.131 286.675C517.008 287.798 515.886 289.029 514.763 290.368C512.863 292.613 511.74 294.492 511.394 296.003L509.257 305.266L505.37 320.554L488.917 323.534L495.2 296.845C495.675 294.902 496.236 292.052 496.884 288.295C497.532 284.538 497.856 282.292 497.856 281.558C497.856 280.09 497.359 279.355 496.366 279.355C496.064 279.355 495.632 279.507 495.07 279.809C494.423 280.111 493.688 280.565 492.868 281.169C491.918 281.86 490.903 282.681 489.823 283.631C488.657 284.667 487.405 285.855 486.066 287.194C484.641 288.619 483.173 290.195 481.661 291.922C479.589 294.254 478.293 296.975 477.775 300.084C477.084 303.798 476.609 307.123 476.35 310.06C476.047 312.997 475.875 316.279 475.832 319.906L461.451 323.339C461.105 318.373 460.933 314.227 460.933 310.902C460.933 302.999 461.753 296.133 463.394 290.303C465.035 284.43 467.713 277.585 471.427 269.768L487.103 266.724C484.296 273.763 482.115 280.565 480.56 287.129C492.177 273.612 501.073 266.853 507.249 266.853C509.494 266.853 511.308 267.782 512.69 269.639C514.115 271.453 514.828 273.849 514.828 276.829C514.828 278.211 514.612 280.759 514.18 284.473C521.478 277.175 526.703 272.424 529.856 270.222C533.052 267.976 535.988 266.853 538.666 266.853C541.041 266.853 542.984 267.803 544.496 269.704C546.007 271.604 546.763 274.022 546.763 276.959C546.763 281.579 545.489 287.517 542.941 294.772C540.393 302.028 539.119 306.821 539.119 309.153C539.119 311.571 540.004 312.781 541.775 312.781C542.898 312.781 544.453 312.046 546.439 310.578C548.469 309.067 551.988 305.634 556.998 300.279V307.728Z" fill="black"/>
<path d="M257.725 269.768C260.705 268.991 263.707 268.365 266.73 267.89C269.753 267.372 271.566 267.112 272.171 267.112C272.603 267.112 272.819 267.285 272.819 267.631C272.819 268.278 272.646 268.948 272.3 269.639C271.609 271.625 271.264 273.525 271.264 275.339C271.264 277.585 272.56 280.651 275.151 284.538C277.742 288.424 279.037 292.03 279.037 295.355C279.037 301.963 275.863 308.333 269.515 314.465C263.21 320.597 256.667 323.663 249.887 323.663C246.951 323.663 244.273 322.886 241.855 321.331C239.437 319.777 238.227 318.114 238.227 316.343C238.227 315.307 239.415 313.342 241.79 310.449C244.209 307.555 245.936 306.109 246.972 306.109C248.354 306.109 249.585 307.879 250.665 311.42C251.744 314.961 253.601 316.732 256.236 316.732C258.87 316.732 261.331 315.523 263.62 313.105C265.952 310.643 267.118 308.009 267.118 305.202C267.118 302.481 265.65 298.853 262.713 294.319C259.777 289.785 257.833 285.984 256.883 282.918C251.874 290.994 245.526 299.264 237.839 307.728H236.349V301.898C246.929 290.627 254.055 279.917 257.725 269.768ZM355.216 307.598C345.413 318.308 337.272 323.663 330.795 323.663C327.685 323.663 325.073 322.584 322.956 320.424C320.84 318.222 319.782 315.523 319.782 312.327C319.782 310.816 320.041 308.549 320.56 305.526C321.078 302.503 321.337 300.797 321.337 300.408C321.337 298.422 320.214 297.407 317.969 297.364C315.723 297.277 314.6 296.392 314.6 294.708C314.6 293.239 314.902 292.225 315.507 291.663C316.155 291.059 317.342 290.756 319.07 290.756C323.82 290.627 327.361 289.655 329.693 287.841C332.025 285.984 333.191 283.803 333.191 281.299C333.191 279.528 332.544 278.081 331.248 276.959C329.996 275.793 328.376 275.21 326.39 275.21C325.31 275.21 324.274 275.339 323.28 275.598C322.244 275.857 321.251 276.246 320.301 276.764C319.307 277.326 318.271 278.038 317.191 278.902C316.155 279.809 315.054 280.91 313.888 282.206C312.765 283.458 311.534 284.948 310.195 286.675C309.504 287.582 308.641 291.836 307.604 299.436C307.086 303.366 306.74 306.994 306.568 310.319C306.395 313.428 306.373 316.948 306.503 320.878L291.799 323.339C291.237 320.057 290.956 316.041 290.956 311.291C290.956 298.335 292.705 285.963 296.203 274.173C299.701 262.384 305.423 250.27 313.369 237.833C319.545 235.328 324.878 233.385 329.37 232.003C333.861 230.578 336.365 229.865 336.884 229.865C337.92 229.865 338.935 230.902 339.928 232.975C340.922 235.048 341.418 237.228 341.418 239.517C341.418 243.361 340.144 247.571 337.596 252.149C335.048 256.683 331.097 262.168 325.742 268.602C329.413 267.523 332.457 266.983 334.876 266.983C338.892 266.983 342.174 268.019 344.722 270.092C347.27 272.122 348.544 274.713 348.544 277.866C348.544 285.034 342.088 290.303 329.175 293.671C334.228 294.837 336.754 297.795 336.754 302.546L336.365 308.376C336.365 311.01 337.596 312.327 340.058 312.327C341.785 312.327 343.75 311.485 345.953 309.801C348.155 308.117 351.243 304.899 355.216 300.149L355.216 307.598ZM312.722 276.376L316.997 271.647C329.65 257.396 335.977 247.355 335.977 241.525C335.977 238.848 334.811 237.509 332.479 237.509C329.801 237.509 326.714 240.662 323.216 246.967C319.761 253.272 316.263 263.075 312.722 276.376ZM418.762 307.728C413.278 313.472 406.714 317.704 399.07 320.424C395.486 331.609 390.93 340.225 385.402 346.271C379.918 352.317 374.088 355.339 367.912 355.339C364.544 355.339 361.823 354.281 359.75 352.165C357.677 350.049 356.641 347.264 356.641 343.809C356.641 339.188 358.692 335.043 362.795 331.372C366.94 327.701 373.958 324.16 383.847 320.748L386.633 307.987C382.487 312.651 378.903 316.084 375.88 318.287C372.857 320.446 369.812 321.526 366.746 321.526C363.162 321.526 360.225 319.841 357.936 316.473C355.648 313.105 354.503 308.721 354.503 303.323C354.503 294.513 357.85 286.265 364.544 278.578C371.281 270.848 378.428 266.983 385.985 266.983C390.174 266.983 393.888 268.753 397.127 272.295C399.07 271.604 401.596 270.567 404.706 269.185L409.305 267.112H410.795C409.111 272.208 407.815 277.175 406.908 282.011L400.819 314.465C406.649 312.262 412.63 307.534 418.762 300.279V307.728ZM377.046 309.866C380.112 309.866 382.833 308.052 385.208 304.424C387.583 300.797 389.418 296.198 390.714 290.627C392.053 285.056 392.722 281.191 392.722 279.032C392.722 277.002 392.204 275.339 391.167 274.044C390.174 272.705 388.922 272.036 387.41 272.036C382.833 272.036 378.838 275.123 375.426 281.299C372.015 287.474 370.309 293.758 370.309 300.149C370.309 303.129 370.913 305.504 372.123 307.275C373.375 309.002 375.016 309.866 377.046 309.866ZM382.487 326.449C368.538 331.458 361.564 337.245 361.564 343.809C361.564 345.752 362.147 347.329 363.313 348.538C364.479 349.79 365.969 350.416 367.783 350.416C370.892 350.416 373.591 348.451 375.88 344.522C378.169 340.592 380.371 334.567 382.487 326.449ZM461.58 307.728C455.707 313.126 450.547 317.121 446.099 319.712C441.694 322.26 437.483 323.534 433.467 323.534C428.846 323.534 425.111 321.742 422.26 318.157C419.453 314.573 418.05 309.758 418.05 303.712C418.05 294.643 420.015 283.76 423.945 271.064C427.875 258.367 432.646 246.664 438.26 235.954L454.714 229.865C455.232 229.693 455.621 229.606 455.88 229.606C457.132 229.606 458.147 230.535 458.925 232.392C459.745 234.205 460.155 236.667 460.155 239.776C460.155 248.586 458.126 257.115 454.066 265.363C450.007 273.612 443.659 282.422 435.022 291.793C434.676 296.284 434.503 299.372 434.503 301.056C434.503 304.813 435.194 307.793 436.576 309.995C437.958 312.198 439.794 313.299 442.082 313.299C444.414 313.299 446.898 312.457 449.532 310.773C452.166 309.088 456.182 305.59 461.58 300.279V307.728ZM436.771 282.4C442.255 276.311 446.703 269.488 450.115 261.93C453.526 254.373 455.232 247.874 455.232 242.432C455.232 240.834 454.995 239.56 454.52 238.61C454.045 237.617 453.44 237.12 452.706 237.12C451.108 237.12 448.776 241.093 445.71 249.04C442.687 256.986 439.707 268.106 436.771 282.4ZM556.998 307.728C551.6 312.997 546.979 316.948 543.135 319.582C539.292 322.217 535.556 323.534 531.929 323.534C529.079 323.534 526.811 322.562 525.127 320.619C523.486 318.632 522.666 315.976 522.666 312.651C522.666 307.987 523.832 302.071 526.164 294.902C528.496 287.733 529.662 283.372 529.662 281.817C529.662 280.435 528.949 279.744 527.524 279.744C527.092 279.744 526.574 279.895 525.969 280.198C525.322 280.5 524.587 280.932 523.767 281.493C522.946 282.098 522.061 282.832 521.111 283.696C520.161 284.559 519.168 285.552 518.131 286.675C517.008 287.798 515.886 289.029 514.763 290.368C512.863 292.613 511.74 294.492 511.394 296.003L509.257 305.266L505.37 320.554L488.917 323.534L495.2 296.845C495.675 294.902 496.236 292.052 496.884 288.295C497.532 284.538 497.856 282.292 497.856 281.558C497.856 280.09 497.359 279.355 496.366 279.355C496.064 279.355 495.632 279.507 495.07 279.809C494.423 280.111 493.688 280.565 492.868 281.169C491.918 281.86 490.903 282.681 489.823 283.631C488.657 284.667 487.405 285.855 486.066 287.194C484.641 288.619 483.173 290.195 481.661 291.922C479.589 294.254 478.293 296.975 477.775 300.084C477.084 303.798 476.609 307.123 476.35 310.06C476.047 312.997 475.875 316.279 475.832 319.906L461.451 323.339C461.105 318.373 460.933 314.227 460.933 310.902C460.933 302.999 461.753 296.133 463.394 290.303C465.035 284.43 467.713 277.585 471.427 269.768L487.103 266.724C484.296 273.763 482.115 280.565 480.56 287.129C492.177 273.612 501.073 266.853 507.249 266.853C509.494 266.853 511.308 267.782 512.69 269.639C514.115 271.453 514.828 273.849 514.828 276.829C514.828 278.211 514.612 280.759 514.18 284.473C521.478 277.175 526.703 272.424 529.856 270.222C533.052 267.976 535.988 266.853 538.666 266.853C541.041 266.853 542.984 267.803 544.496 269.704C546.007 271.604 546.763 274.022 546.763 276.959C546.763 281.579 545.489 287.517 542.941 294.772C540.393 302.028 539.119 306.821 539.119 309.153C539.119 311.571 540.004 312.781 541.775 312.781C542.898 312.781 544.453 312.046 546.439 310.578C548.469 309.067 551.988 305.634 556.998 300.279V307.728Z" stroke="white" stroke-width="8" mask="url(#path-1-outside-1_2_10)"/>
<path d="M213.299 205.023C293.417 238.136 371.787 232.506 388.343 192.447C404.9 152.389 353.374 93.0708 273.257 59.9573C193.139 26.8438 114.77 32.474 98.2128 72.5327C81.656 112.591 133.182 171.909 213.299 205.023Z" fill="#F8993A"/>
<path d="M117.91 138.479C126.98 201.969 164.265 247.552 235.819 256.389C164.698 265.265 126.98 301.739 117.91 374.298C108.84 301.739 72.5598 265.459 0 256.389C72.5598 247.319 108.84 201.969 117.91 138.479Z" fill="#339ACC"/>
</svg>
